<mxfile host="65bd71144e">
    <diagram id="M4vmabxAtG6oB-XPU69J" name="Timbangan">
        <mxGraphModel dx="988" dy="423" grid="1" gridSize="10" guides="1" tooltips="1" connect="1" arrows="1" fold="1" page="1" pageScale="1" pageWidth="850" pageHeight="1100" math="0" shadow="0">
            <root>
                <mxCell id="0"/>
                <mxCell id="1" parent="0"/>
                <mxCell id="0GjIKsvauBh2FKpADTP1-2" value="timbang&lt;br&gt;sampah" style="shape=parallelogram;perimeter=parallelogramPerimeter;whiteSpace=wrap;html=1;fixedSize=1;" parent="1" vertex="1">
                    <mxGeometry x="270" y="581" width="120" height="60" as="geometry"/>
                </mxCell>
                <mxCell id="0GjIKsvauBh2FKpADTP1-3" value="mode" style="rhombus;whiteSpace=wrap;html=1;" parent="1" vertex="1">
                    <mxGeometry x="385" y="481" width="80" height="80" as="geometry"/>
                </mxCell>
                <mxCell id="0GjIKsvauBh2FKpADTP1-4" value="otomatis" style="text;html=1;strokeColor=none;fillColor=none;align=center;verticalAlign=middle;whiteSpace=wrap;rounded=0;" parent="1" vertex="1">
                    <mxGeometry x="330" y="491" width="60" height="30" as="geometry"/>
                </mxCell>
                <mxCell id="0GjIKsvauBh2FKpADTP1-5" value="database" style="shape=cylinder3;whiteSpace=wrap;html=1;boundedLbl=1;backgroundOutline=1;size=15;" parent="1" vertex="1">
                    <mxGeometry x="525" y="790" width="60" height="80" as="geometry"/>
                </mxCell>
                <mxCell id="0GjIKsvauBh2FKpADTP1-6" value="alat di hidupkan" style="ellipse;whiteSpace=wrap;html=1;" parent="1" vertex="1">
                    <mxGeometry x="385" y="261" width="80" height="80" as="geometry"/>
                </mxCell>
                <mxCell id="0GjIKsvauBh2FKpADTP1-7" value="" style="endArrow=classic;html=1;exitX=0.5;exitY=1;exitDx=0;exitDy=0;startArrow=none;" parent="1" source="0GjIKsvauBh2FKpADTP1-9" target="0GjIKsvauBh2FKpADTP1-3" edge="1">
                    <mxGeometry width="50" height="50" relative="1" as="geometry">
                        <mxPoint x="390" y="601" as="sourcePoint"/>
                        <mxPoint x="390" y="681" as="targetPoint"/>
                    </mxGeometry>
                </mxCell>
                <mxCell id="0GjIKsvauBh2FKpADTP1-8" value="" style="endArrow=classic;html=1;exitX=0;exitY=0.5;exitDx=0;exitDy=0;entryX=0.5;entryY=0;entryDx=0;entryDy=0;edgeStyle=orthogonalEdgeStyle;" parent="1" source="0GjIKsvauBh2FKpADTP1-3" target="0GjIKsvauBh2FKpADTP1-2" edge="1">
                    <mxGeometry width="50" height="50" relative="1" as="geometry">
                        <mxPoint x="435" y="441" as="sourcePoint"/>
                        <mxPoint x="320" y="521" as="targetPoint"/>
                    </mxGeometry>
                </mxCell>
                <mxCell id="0GjIKsvauBh2FKpADTP1-9" value="modul terhubung ke internet" style="shape=process;whiteSpace=wrap;html=1;backgroundOutline=1;" parent="1" vertex="1">
                    <mxGeometry x="365" y="381" width="120" height="60" as="geometry"/>
                </mxCell>
                <mxCell id="0GjIKsvauBh2FKpADTP1-10" value="" style="endArrow=classic;html=1;exitX=0.5;exitY=1;exitDx=0;exitDy=0;startArrow=none;" parent="1" source="0GjIKsvauBh2FKpADTP1-6" edge="1">
                    <mxGeometry width="50" height="50" relative="1" as="geometry">
                        <mxPoint x="435" y="451" as="sourcePoint"/>
                        <mxPoint x="425" y="381" as="targetPoint"/>
                    </mxGeometry>
                </mxCell>
                <mxCell id="0GjIKsvauBh2FKpADTP1-11" value="" style="endArrow=classic;html=1;exitX=1;exitY=0.5;exitDx=0;exitDy=0;startArrow=none;entryX=0;entryY=0.5;entryDx=0;entryDy=0;" parent="1" source="0GjIKsvauBh2FKpADTP1-3" target="0GjIKsvauBh2FKpADTP1-16" edge="1">
                    <mxGeometry width="50" height="50" relative="1" as="geometry">
                        <mxPoint x="435" y="451" as="sourcePoint"/>
                        <mxPoint x="550" y="521" as="targetPoint"/>
                    </mxGeometry>
                </mxCell>
                <mxCell id="0GjIKsvauBh2FKpADTP1-12" value="manual" style="text;html=1;strokeColor=none;fillColor=none;align=center;verticalAlign=middle;whiteSpace=wrap;rounded=0;" parent="1" vertex="1">
                    <mxGeometry x="465" y="491" width="60" height="30" as="geometry"/>
                </mxCell>
                <mxCell id="0GjIKsvauBh2FKpADTP1-13" value="tunggu hingga stabil" style="shape=process;whiteSpace=wrap;html=1;backgroundOutline=1;" parent="1" vertex="1">
                    <mxGeometry x="270" y="691" width="120" height="60" as="geometry"/>
                </mxCell>
                <mxCell id="0GjIKsvauBh2FKpADTP1-14" value="" style="endArrow=classic;html=1;exitX=0.5;exitY=1;exitDx=0;exitDy=0;startArrow=none;" parent="1" source="0GjIKsvauBh2FKpADTP1-2" target="0GjIKsvauBh2FKpADTP1-13" edge="1">
                    <mxGeometry width="50" height="50" relative="1" as="geometry">
                        <mxPoint x="475" y="531" as="sourcePoint"/>
                        <mxPoint x="560" y="531" as="targetPoint"/>
                    </mxGeometry>
                </mxCell>
                <mxCell id="0GjIKsvauBh2FKpADTP1-16" value="timbang&lt;br&gt;sampah" style="shape=parallelogram;perimeter=parallelogramPerimeter;whiteSpace=wrap;html=1;fixedSize=1;" parent="1" vertex="1">
                    <mxGeometry x="530" y="491" width="120" height="60" as="geometry"/>
                </mxCell>
                <mxCell id="0GjIKsvauBh2FKpADTP1-17" value="button" style="rhombus;whiteSpace=wrap;html=1;" parent="1" vertex="1">
                    <mxGeometry x="660" y="579" width="60" height="62" as="geometry"/>
                </mxCell>
                <mxCell id="0GjIKsvauBh2FKpADTP1-18" value="" style="endArrow=classic;html=1;exitX=1;exitY=0.5;exitDx=0;exitDy=0;startArrow=none;entryX=0.5;entryY=0;entryDx=0;entryDy=0;edgeStyle=orthogonalEdgeStyle;" parent="1" source="0GjIKsvauBh2FKpADTP1-16" target="0GjIKsvauBh2FKpADTP1-17" edge="1">
                    <mxGeometry width="50" height="50" relative="1" as="geometry">
                        <mxPoint x="475" y="531" as="sourcePoint"/>
                        <mxPoint x="550" y="531" as="targetPoint"/>
                    </mxGeometry>
                </mxCell>
                <mxCell id="0GjIKsvauBh2FKpADTP1-20" value="on" style="text;html=1;strokeColor=none;fillColor=none;align=center;verticalAlign=middle;whiteSpace=wrap;rounded=0;" parent="1" vertex="1">
                    <mxGeometry x="690" y="630" width="40" height="30" as="geometry"/>
                </mxCell>
                <mxCell id="QvT6yIHbrhwC2VJFk3dU-1" value="upload data" style="rounded=0;whiteSpace=wrap;html=1;" parent="1" vertex="1">
                    <mxGeometry x="285" y="800" width="90" height="40" as="geometry"/>
                </mxCell>
                <mxCell id="QvT6yIHbrhwC2VJFk3dU-8" value="" style="endArrow=classic;html=1;exitX=0.5;exitY=1;exitDx=0;exitDy=0;" parent="1" source="0GjIKsvauBh2FKpADTP1-13" target="QvT6yIHbrhwC2VJFk3dU-1" edge="1">
                    <mxGeometry width="50" height="50" relative="1" as="geometry">
                        <mxPoint x="440" y="840" as="sourcePoint"/>
                        <mxPoint x="490" y="790" as="targetPoint"/>
                    </mxGeometry>
                </mxCell>
                <mxCell id="QvT6yIHbrhwC2VJFk3dU-9" value="" style="endArrow=classic;html=1;exitX=1;exitY=0.5;exitDx=0;exitDy=0;entryX=1;entryY=0.5;entryDx=0;entryDy=0;edgeStyle=orthogonalEdgeStyle;" parent="1" source="QvT6yIHbrhwC2VJFk3dU-1" target="0GjIKsvauBh2FKpADTP1-2" edge="1">
                    <mxGeometry width="50" height="50" relative="1" as="geometry">
                        <mxPoint x="460" y="720" as="sourcePoint"/>
                        <mxPoint x="510" y="670" as="targetPoint"/>
                        <Array as="points">
                            <mxPoint x="410" y="820"/>
                            <mxPoint x="410" y="611"/>
                        </Array>
                    </mxGeometry>
                </mxCell>
                <mxCell id="2" value="upload data" style="rounded=0;whiteSpace=wrap;html=1;" vertex="1" parent="1">
                    <mxGeometry x="645" y="720" width="90" height="40" as="geometry"/>
                </mxCell>
                <mxCell id="3" value="" style="endArrow=classic;html=1;exitX=0.5;exitY=1;exitDx=0;exitDy=0;startArrow=none;entryX=0.5;entryY=1;entryDx=0;entryDy=0;entryPerimeter=0;edgeStyle=orthogonalEdgeStyle;" edge="1" parent="1" source="QvT6yIHbrhwC2VJFk3dU-1" target="0GjIKsvauBh2FKpADTP1-5">
                    <mxGeometry width="50" height="50" relative="1" as="geometry">
                        <mxPoint x="340" y="651" as="sourcePoint"/>
                        <mxPoint x="340" y="701" as="targetPoint"/>
                    </mxGeometry>
                </mxCell>
                <mxCell id="4" value="" style="endArrow=classic;html=1;exitX=0.5;exitY=1;exitDx=0;exitDy=0;entryX=1;entryY=0.5;entryDx=0;entryDy=0;entryPerimeter=0;edgeStyle=orthogonalEdgeStyle;" edge="1" parent="1" source="2" target="0GjIKsvauBh2FKpADTP1-5">
                    <mxGeometry width="50" height="50" relative="1" as="geometry">
                        <mxPoint x="340" y="761" as="sourcePoint"/>
                        <mxPoint x="340" y="810" as="targetPoint"/>
                    </mxGeometry>
                </mxCell>
                <mxCell id="5" value="" style="endArrow=classic;html=1;exitX=0;exitY=0.5;exitDx=0;exitDy=0;entryX=0.5;entryY=1;entryDx=0;entryDy=0;edgeStyle=orthogonalEdgeStyle;" edge="1" parent="1" source="2" target="0GjIKsvauBh2FKpADTP1-16">
                    <mxGeometry width="50" height="50" relative="1" as="geometry">
                        <mxPoint x="700" y="770" as="sourcePoint"/>
                        <mxPoint x="595" y="840" as="targetPoint"/>
                        <Array as="points">
                            <mxPoint x="620" y="740"/>
                            <mxPoint x="620" y="590"/>
                            <mxPoint x="590" y="590"/>
                        </Array>
                    </mxGeometry>
                </mxCell>
                <mxCell id="6" value="" style="endArrow=classic;html=1;exitX=0;exitY=0.25;exitDx=0;exitDy=0;entryX=0.5;entryY=0;entryDx=0;entryDy=0;" edge="1" parent="1" source="0GjIKsvauBh2FKpADTP1-20" target="2">
                    <mxGeometry width="50" height="50" relative="1" as="geometry">
                        <mxPoint x="655" y="750" as="sourcePoint"/>
                        <mxPoint x="600" y="561" as="targetPoint"/>
                    </mxGeometry>
                </mxCell>
                <mxCell id="WY8cYGTa1kDrdGRJ4hi4-6" value="Alur kerja I/O T" style="text;html=1;align=center;verticalAlign=middle;resizable=0;points=[];autosize=1;strokeColor=none;fillColor=none;fontStyle=1;fontSize=15;" vertex="1" parent="1">
                    <mxGeometry x="360" y="200" width="130" height="30" as="geometry"/>
                </mxCell>
                <mxCell id="f_AaTSSCQOgwhcK8w4-q-6" value="tampilkan hasil upload data" style="shape=document;whiteSpace=wrap;html=1;boundedLbl=1;fontSize=15;" vertex="1" parent="1">
                    <mxGeometry x="450" y="650" width="120" height="80" as="geometry"/>
                </mxCell>
                <mxCell id="f_AaTSSCQOgwhcK8w4-q-7" value="" style="endArrow=classic;html=1;exitX=0.75;exitY=1;exitDx=0;exitDy=0;entryX=0;entryY=0.5;entryDx=0;entryDy=0;edgeStyle=orthogonalEdgeStyle;" edge="1" parent="1" source="QvT6yIHbrhwC2VJFk3dU-1" target="f_AaTSSCQOgwhcK8w4-q-6">
                    <mxGeometry width="50" height="50" relative="1" as="geometry">
                        <mxPoint x="340" y="761" as="sourcePoint"/>
                        <mxPoint x="340" y="810" as="targetPoint"/>
                        <Array as="points">
                            <mxPoint x="353" y="850"/>
                            <mxPoint x="430" y="850"/>
                            <mxPoint x="430" y="690"/>
                        </Array>
                    </mxGeometry>
                </mxCell>
                <mxCell id="f_AaTSSCQOgwhcK8w4-q-8" value="" style="endArrow=classic;html=1;exitX=0.25;exitY=1;exitDx=0;exitDy=0;entryX=1;entryY=0.5;entryDx=0;entryDy=0;edgeStyle=orthogonalEdgeStyle;" edge="1" parent="1" source="2" target="f_AaTSSCQOgwhcK8w4-q-6">
                    <mxGeometry width="50" height="50" relative="1" as="geometry">
                        <mxPoint x="700" y="647.5" as="sourcePoint"/>
                        <mxPoint x="700" y="730" as="targetPoint"/>
                    </mxGeometry>
                </mxCell>
            </root>
        </mxGraphModel>
    </diagram>
    <diagram id="vbckMRjH2Q_vJNiEsods" name="Hardware">
        <mxGraphModel dx="1284" dy="550" grid="1" gridSize="10" guides="1" tooltips="1" connect="1" arrows="1" fold="1" page="1" pageScale="1" pageWidth="850" pageHeight="1100" math="0" shadow="0">
            <root>
                <mxCell id="0"/>
                <mxCell id="1" parent="0"/>
            </root>
        </mxGraphModel>
    </diagram>
    <diagram id="idPrOzgXo4IwCVlRC7Rt" name="Basic">
        <mxGraphModel dx="676" dy="289" grid="1" gridSize="10" guides="1" tooltips="1" connect="1" arrows="1" fold="1" page="1" pageScale="1" pageWidth="850" pageHeight="1100" math="0" shadow="0">
            <root>
                <mxCell id="0"/>
                <mxCell id="1" parent="0"/>
                <mxCell id="14" value="tampilkan di aplikasi atau website" style="shape=document;whiteSpace=wrap;html=1;boundedLbl=1;strokeWidth=1;" parent="1" vertex="1">
                    <mxGeometry x="265" y="690" width="120" height="70" as="geometry"/>
                </mxCell>
                <mxCell id="30" value="sampah&lt;br&gt;hasil cacah" style="shape=parallelogram;perimeter=parallelogramPerimeter;whiteSpace=wrap;html=1;fixedSize=1;strokeWidth=1;" parent="1" vertex="1">
                    <mxGeometry x="270" y="330" width="110" height="50" as="geometry"/>
                </mxCell>
                <mxCell id="33" value="Di timbang" style="shape=process;whiteSpace=wrap;html=1;backgroundOutline=1;strokeWidth=1;" parent="1" vertex="1">
                    <mxGeometry x="265" y="440" width="120" height="60" as="geometry"/>
                </mxCell>
                <mxCell id="37" value="" style="edgeStyle=none;orthogonalLoop=1;jettySize=auto;html=1;rounded=0;endArrow=open;startSize=14;endSize=14;targetPerimeterSpacing=8;curved=1;strokeWidth=1;exitX=0.5;exitY=1;exitDx=0;exitDy=0;startArrow=none;entryX=0.5;entryY=0;entryDx=0;entryDy=0;" parent="1" source="30" target="33" edge="1">
                    <mxGeometry width="140" relative="1" as="geometry">
                        <mxPoint x="324.81" y="395" as="sourcePoint"/>
                        <mxPoint x="325" y="440" as="targetPoint"/>
                        <Array as="points"/>
                    </mxGeometry>
                </mxCell>
                <mxCell id="38" value="data base" style="html=1;strokeColor=none;fillColor=#4D4D4D;labelPosition=center;verticalLabelPosition=middle;verticalAlign=top;align=center;fontSize=12;outlineConnect=0;spacingTop=-6;fontColor=#FFFFFF;sketch=0;shape=mxgraph.sitemap.cloud;strokeWidth=2;" parent="1" vertex="1">
                    <mxGeometry x="265" y="560" width="120" height="70" as="geometry"/>
                </mxCell>
                <mxCell id="39" value="" style="edgeStyle=none;orthogonalLoop=1;jettySize=auto;html=1;rounded=0;endArrow=open;startSize=14;endSize=14;targetPerimeterSpacing=8;curved=1;strokeWidth=1;exitX=0.5;exitY=1;exitDx=0;exitDy=0;startArrow=none;entryX=0.5;entryY=0;entryDx=0;entryDy=0;entryPerimeter=0;" parent="1" source="33" target="38" edge="1">
                    <mxGeometry width="140" relative="1" as="geometry">
                        <mxPoint x="335" y="390" as="sourcePoint"/>
                        <mxPoint x="335" y="450" as="targetPoint"/>
                        <Array as="points"/>
                    </mxGeometry>
                </mxCell>
                <mxCell id="40" value="" style="edgeStyle=none;orthogonalLoop=1;jettySize=auto;html=1;rounded=0;endArrow=open;startSize=14;endSize=14;targetPerimeterSpacing=8;curved=1;strokeWidth=1;exitX=0.5;exitY=1;exitDx=0;exitDy=0;startArrow=none;entryX=0.5;entryY=0;entryDx=0;entryDy=0;exitPerimeter=0;" parent="1" source="38" target="14" edge="1">
                    <mxGeometry width="140" relative="1" as="geometry">
                        <mxPoint x="335" y="510" as="sourcePoint"/>
                        <mxPoint x="335" y="569.9999999999999" as="targetPoint"/>
                        <Array as="points"/>
                    </mxGeometry>
                </mxCell>
            </root>
        </mxGraphModel>
    </diagram>
</mxfile>